<svg width="1600" height="900" viewBox="0 0 1600 900" fill="none" xmlns="http://www.w3.org/2000/svg">
  <defs>
    <linearGradient id="bg" x1="160" y1="96" x2="1414" y2="812" gradientUnits="userSpaceOnUse">
      <stop stop-color="#0F172A"/>
      <stop offset="0.52" stop-color="#111827"/>
      <stop offset="1" stop-color="#050816"/>
    </linearGradient>
    <radialGradient id="glow" cx="0" cy="0" r="1" gradientUnits="userSpaceOnUse" gradientTransform="translate(1200 180) rotate(125.854) scale(510.971 636.768)">
      <stop stop-color="#FFE46B" stop-opacity="0.8"/>
      <stop offset="1" stop-color="#FFE46B" stop-opacity="0"/>
    </radialGradient>
    <linearGradient id="bladeBlue" x1="0" y1="0" x2="0" y2="1">
      <stop stop-color="#B4F1FF"/>
      <stop offset="1" stop-color="#3FC6FF"/>
    </linearGradient>
    <linearGradient id="bladeRed" x1="0" y1="0" x2="0" y2="1">
      <stop stop-color="#FFB4B7"/>
      <stop offset="1" stop-color="#FF5964"/>
    </linearGradient>
  </defs>

  <rect width="1600" height="900" rx="40" fill="url(#bg)"/>
  <rect width="1600" height="900" rx="40" fill="url(#glow)"/>

  <g opacity="0.85">
    <circle cx="150" cy="140" r="2.5" fill="white"/>
    <circle cx="260" cy="210" r="1.5" fill="white"/>
    <circle cx="410" cy="96" r="2" fill="white"/>
    <circle cx="590" cy="162" r="1.5" fill="white"/>
    <circle cx="760" cy="112" r="2.5" fill="white"/>
    <circle cx="990" cy="88" r="1.5" fill="white"/>
    <circle cx="1160" cy="212" r="2.5" fill="white"/>
    <circle cx="1340" cy="126" r="2" fill="white"/>
    <circle cx="1460" cy="246" r="1.5" fill="white"/>
    <circle cx="1240" cy="332" r="2" fill="white"/>
    <circle cx="1080" cy="760" r="2.5" fill="white"/>
    <circle cx="1320" cy="690" r="2" fill="white"/>
    <circle cx="1470" cy="790" r="1.5" fill="white"/>
  </g>

  <g opacity="0.9">
    <rect x="1120" y="170" width="18" height="420" rx="9" transform="rotate(34 1120 170)" fill="url(#bladeBlue)"/>
    <rect x="1202" y="214" width="18" height="360" rx="9" transform="rotate(34 1202 214)" fill="url(#bladeRed)"/>
    <rect x="1092" y="494" width="66" height="18" rx="9" transform="rotate(34 1092 494)" fill="#7C889B"/>
    <rect x="1176" y="532" width="66" height="18" rx="9" transform="rotate(34 1176 532)" fill="#7C889B"/>
  </g>

  <g opacity="0.95">
    <path d="M225 566C259 522 330 500 412 500H602C644 500 678 534 678 576C678 617 644 651 602 651H450C392 651 347 669 315 706" stroke="#F6C94A" stroke-width="22" stroke-linecap="round"/>
    <path d="M276 444L364 362L502 500" stroke="#F6C94A" stroke-width="22" stroke-linecap="round" stroke-linejoin="round"/>
    <circle cx="538" cy="504" r="20" fill="#F6C94A"/>
  </g>

  <g fill="white">
    <text x="130" y="250" font-size="36" font-family="Arial, sans-serif" opacity="0.88">Brickhunt editorial</text>
    <text x="130" y="390" font-size="108" font-weight="700" font-family="Arial, sans-serif">Star Wars Day</text>
    <text x="130" y="496" font-size="108" font-weight="700" font-family="Arial, sans-serif">2026</text>
    <text x="130" y="586" font-size="38" font-family="Arial, sans-serif" opacity="0.9">
      Waar wil je kijken, wat beweegt in prijs, en welke set wil je nu echt pakken?
    </text>
  </g>
</svg>
